<svg width="60" height="26" fill="none" xmlns="http://www.w3.org/2000/svg"><path d="M18.595 19.595c-.558-1.288-1.707-1.933-3.446-1.933H14.6v7.949h.549c1.344 0 2.336-.44 2.977-1.32.54-.752.809-1.707.809-2.868-.002-.69-.115-1.3-.34-1.828ZM9.177 19.69c.558 1.29 1.707 1.934 3.445 1.934h.55v-7.95h-.55c-1.344 0-2.336.44-2.976 1.32-.538.752-.807 1.707-.808 2.868 0 .69.113 1.3.339 1.829ZM.043.98h7.303v2.105H2.664v1.052h3.89v1.998h-3.89V7.2h4.682v2.105H.043V.979ZM11.018.969h9.45l-4.725 8.505L11.018.969Zm4.725 7.452 3.903-7.01h-7.792l3.889 7.01ZM24.241.979h7.303v2.105h-4.681v1.053h3.889v1.998h-3.89v1.064h4.682v2.106H24.24V.979ZM36.038 9.293V.969h.562l7 5.658V.97h.533v8.326l-8.095-.002ZM51.782 9.305v-6.22h-3.789V.978h8.095v2.105H52.3v6.22h-.518ZM4.35 15.334c.633 0 1.137.08 1.512.239.43.174.791.447 1.041.786.25.339.379.73.37 1.128a1.76 1.76 0 0 1-.374 1.082 2.539 2.539 0 0 1-1.023.784c.52.152.975.426 1.31.79.35.358.538.806.534 1.267.003.403-.129.799-.382 1.143a2.617 2.617 0 0 1-1.015.82 3.05 3.05 0 0 1-.706.214c-.26.048-.605.072-1.037.072H.143v-8.325H4.35ZM21.238 23.055c-.754-.546-1.126-1.366-1.116-2.458h2.348c-.01.454.153.801.49 1.04.335.24.806.36 1.41.36.5 0 .894-.068 1.182-.204.288-.136.432-.343.432-.622 0-.231-.146-.399-.44-.502-.279-.1-.571-.175-.87-.222l-.534-.08c-.652-.1-1.293-.246-1.915-.438a3.422 3.422 0 0 1-1.354-.778c-.365-.35-.548-.813-.548-1.387 0-.574.183-1.063.548-1.466.364-.402.852-.703 1.462-.903a6.39 6.39 0 0 1 1.995-.299c.873 0 1.63.136 2.268.407.639.271 1.14.682 1.505 1.232.17.233.282.49.332.76.038.236.057.473.057.711h-2.348c0-.43-.139-.747-.417-.95-.279-.204-.71-.306-1.297-.306-.47 0-.835.068-1.094.204-.26.135-.39.319-.39.55 0 .255.174.443.52.562.424.14.863.248 1.31.323.864.144 1.539.281 2.024.413.489.134.925.376 1.26.7.355.335.533.805.533 1.411 0 .574-.192 1.069-.576 1.483-.384.415-.89.732-1.52.951a6.15 6.15 0 0 1-2.038.33c-1.392-.002-2.465-.276-3.22-.822ZM34.497 23.66v-6.221h-3.788v-2.105h8.095v2.105h-3.789v6.22h-.518ZM41.526 15.334h7.303v2.105h-4.681v1.052h3.889v1.998h-3.89v1.065h4.682v2.105h-7.303v-8.325ZM59.646 23.66H51.94v-8.326h3.903c.835 0 1.517.123 2.045.37.505.228.924.568 1.21.981.29.419.439.893.432 1.376.007.605-.237 1.195-.691 1.669-.435.476-1.048.819-1.743.974l2.55 2.955Zm-7.174-7.597v4.295h3.702l-3.702-4.295Zm0 7.154h6.165l-2.103-2.429-.446.012h-3.616v2.416Zm.375-7.44 3.918 4.545c.629-.105 1.194-.388 1.599-.802.416-.407.64-.925.633-1.46a1.994 1.994 0 0 0-.389-1.195 2.448 2.448 0 0 0-1.094-.826c-.423-.175-.975-.263-1.657-.263h-3.01Z" fill="#fff"/></svg>