<svg width="60" height="26" viewBox="0 0 60 26" fill="none" xmlns="http://www.w3.org/2000/svg">
<path d="M18.5953 19.5952C18.037 18.3065 16.8882 17.662 15.1489 17.6617H14.6001V25.611H15.1489C16.4933 25.611 17.4855 25.1709 18.1257 24.2908C18.6651 23.5395 18.9347 22.5836 18.9347 21.423C18.9335 20.7327 18.8203 20.1234 18.5953 19.5952Z" fill="white"/>
<path d="M9.17651 19.6906C9.73539 20.9793 10.884 21.6237 12.6224 21.6237H13.1712V13.6744H12.6224C11.2781 13.6744 10.2858 14.1145 9.6456 14.9947C9.10785 15.7456 8.83882 16.7015 8.8385 17.8624C8.8385 18.5519 8.95117 19.1613 9.17651 19.6906Z" fill="white"/>
<path d="M0.0429688 0.97934H7.34578V3.08468H2.66449V4.13735H6.55356V6.13502H2.66449V7.19966H7.34578V9.30499H0.0429688V0.97934Z" fill="white"/>
<path d="M11.0183 0.968964H20.4673L15.7428 9.47405L11.0183 0.968964ZM15.7428 8.42138L19.6463 1.41156H11.8537L15.7428 8.42138Z" fill="white"/>
<path d="M24.2411 0.978912H31.5439V3.08425H26.8626V4.13692H30.7517V6.1346H26.8626V7.19923H31.5439V9.30457H24.2411V0.978912Z" fill="white"/>
<path d="M36.0381 9.29263V0.968964H36.5998L43.6002 6.62706V0.968964H44.1331V9.29462L36.0381 9.29263Z" fill="white"/>
<path d="M51.7817 9.30457V3.08425H47.9934V0.978912H56.0884V3.08425H52.3002V9.30457H51.7817Z" fill="white"/>
<path d="M4.34927 15.3335C4.98304 15.3335 5.48718 15.4132 5.86168 15.5727C6.29196 15.7471 6.65337 16.0198 6.90343 16.3588C7.15348 16.6979 7.28179 17.0892 7.27327 17.4867C7.27589 17.8699 7.1459 18.2456 6.89877 18.5693C6.64762 18.9012 6.29465 19.1716 5.87609 19.3528C6.39583 19.505 6.85118 19.7793 7.18685 20.1423C7.53524 20.5013 7.72351 20.9492 7.71979 21.4103C7.72348 21.8132 7.59125 22.2089 7.33809 22.5527C7.09048 22.894 6.74063 23.1763 6.32261 23.3721C6.1007 23.471 5.8631 23.5435 5.61682 23.5874C5.35754 23.6352 5.01185 23.6591 4.57973 23.6591H0.143311V15.3335H4.34927Z" fill="white"/>
<path d="M21.2379 23.0551C20.4841 22.5088 20.112 21.6894 20.1216 20.5968H22.4695C22.4599 21.0514 22.6231 21.3983 22.9592 21.6375C23.2953 21.8768 23.7658 21.9964 24.3708 21.9964C24.8701 21.9964 25.2639 21.9286 25.5519 21.7931C25.84 21.6575 25.9841 21.4501 25.9841 21.171C25.9841 20.9398 25.8376 20.7723 25.5447 20.6686C25.265 20.5683 24.9727 20.4941 24.6733 20.4473C24.3852 20.4035 24.2076 20.3769 24.1403 20.3676C23.4878 20.2673 22.8468 20.1206 22.2246 19.929C21.7022 19.7677 21.2368 19.5004 20.8706 19.1514C20.5057 18.8005 20.3233 18.338 20.3233 17.7638C20.3233 17.1896 20.5057 16.7012 20.8706 16.2984C21.2355 15.8957 21.7229 15.5947 22.3326 15.3953C22.9689 15.1919 23.6458 15.0904 24.3276 15.0962C25.2014 15.0962 25.9576 15.2318 26.5962 15.503C27.2348 15.7741 27.7365 16.1848 28.1014 16.7351C28.2708 16.9678 28.3833 17.2259 28.4327 17.4947C28.4706 17.7306 28.4898 17.9684 28.4903 18.2064H26.1425C26.1425 17.7758 26.0033 17.4588 25.7248 17.2554C25.4463 17.0521 25.0142 16.9504 24.4284 16.9504C23.9579 16.9504 23.593 17.0182 23.3337 17.1537C23.0745 17.2893 22.9448 17.4727 22.9448 17.704C22.9448 17.9592 23.1177 18.1466 23.4634 18.2662C23.888 18.4056 24.3266 18.5137 24.7741 18.5892C25.6384 18.7327 26.3129 18.8703 26.7979 19.0019C27.2867 19.1357 27.7225 19.3776 28.0582 19.7017C28.4135 20.0366 28.5912 20.5071 28.5912 21.1132C28.5912 21.6874 28.3991 22.1818 28.015 22.5965C27.6309 23.0112 27.1244 23.3282 26.4954 23.5475C25.8495 23.7696 25.1563 23.8815 24.4572 23.8765C23.0649 23.8751 21.9918 23.6013 21.2379 23.0551Z" fill="white"/>
<path d="M34.4967 23.6591V17.4388H30.7085V15.3335H38.8035V17.4388H35.0153V23.6591H34.4967Z" fill="white"/>
<path d="M41.526 15.3335H48.8288V17.4388H44.1475V18.4915H48.0366V20.4892H44.1475V21.5538H48.8288V23.6591H41.526V15.3335Z" fill="white"/>
<path d="M59.6456 23.6591H51.9395V15.3335H55.8429C56.6784 15.3335 57.3601 15.4571 57.8883 15.7043C58.3929 15.9323 58.8117 16.2718 59.0982 16.6852C59.3875 17.1035 59.5367 17.5785 59.5303 18.0609C59.5371 18.6665 59.293 19.2557 58.839 19.7296C58.4038 20.2056 57.7908 20.5485 57.0961 20.7045L59.6456 23.6591ZM52.4724 16.0632V20.3576H56.1742L52.4724 16.0632ZM52.4724 23.2165H58.6373L56.5343 20.7882L56.0878 20.8002H52.4724V23.2165ZM52.8469 15.7761L56.7648 20.3217C57.3938 20.2173 57.9593 19.9338 58.3636 19.5202C58.7795 19.113 59.0045 18.5948 58.9974 18.0609C59.0032 17.64 58.8686 17.2259 58.6085 16.8647C58.3495 16.506 57.9686 16.2188 57.5138 16.0393C57.0913 15.8638 56.5391 15.7761 55.8573 15.7761H52.8469Z" fill="white"/>
</svg>
