<svg width="12" height="12" viewBox="0 0 12 12" fill="none" xmlns="http://www.w3.org/2000/svg">
<path d="M1.50906 1.50905C2.48218 0.535922 3.776 0 5.15218 0C6.52836 0 7.82218 0.535922 8.79528 1.50905C9.76838 2.48215 10.3043 3.77597 10.3043 5.15213C10.3043 6.41032 9.8561 7.59949 9.0356 8.53786L11.8969 11.3992C12.0344 11.5366 12.0344 11.7595 11.8969 11.8969C11.8282 11.9656 11.7381 12 11.6481 12C11.558 12 11.4679 11.9656 11.3993 11.8969L8.53791 9.03558C7.59954 9.85606 6.41037 10.3043 5.15218 10.3043C3.77598 10.3043 2.48221 9.76838 1.50908 8.79525C0.535982 7.82215 6.10352e-05 6.52833 6.10352e-05 5.15215C6.10352e-05 3.77597 0.535959 2.48215 1.50906 1.50905ZM2.00678 8.29755C3.74117 10.0319 6.56316 10.0319 8.29756 8.29755C10.0319 6.56318 10.0319 3.74114 8.29756 2.00677C7.43028 1.13948 6.29141 0.705984 5.15216 0.705984C4.01319 0.705984 2.87385 1.1397 2.00675 2.00677C0.272429 3.74112 0.272429 6.56316 2.00678 8.29755Z" fill="#939393"/>
</svg>
